<svg xmlns="http://www.w3.org/2000/svg" viewBox="0 0 312.75 174.88"><defs><style>.cls-1{fill:#c3d0d0;}.cls-2{fill:#fff;}</style></defs><g id="Layer_2" data-name="Layer 2"><g id="Layer_1-2" data-name="Layer 1"><path class="cls-1" d="M51.86,170.45l.27,0-.39,2.69a12.74,12.74,0,0,1-6.08,1.71,8.45,8.45,0,0,1-6.64-2.8,8.58,8.58,0,0,1-2.19-5.93A8.88,8.88,0,0,1,38,161.63a8,8,0,0,1,3.8-3.39,10.06,10.06,0,0,1,4.06-.83,11.17,11.17,0,0,1,3.17.47,11,11,0,0,1,2,.8.48.48,0,0,0,.21.06,1.36,1.36,0,0,0,.51-.15l.38,3.86h-.33c-.79-1.07-1.25-1.68-1.37-1.83a7,7,0,0,0-2.11-1.8,5,5,0,0,0-2.45-.64,4.38,4.38,0,0,0-3,1.11q-2.53,2.22-2.53,6.6A12.19,12.19,0,0,0,41,170a6.54,6.54,0,0,0,2.12,3,5.4,5.4,0,0,0,3.36,1.1A5.71,5.71,0,0,0,50.82,172,6.48,6.48,0,0,0,51.86,170.45Z"/><path class="cls-1" d="M72.1,157.42A8.58,8.58,0,0,1,79,160.47a8.32,8.32,0,0,1,2,5.52,8.52,8.52,0,0,1-1.28,4.64,8.43,8.43,0,0,1-3.45,3.14,10.44,10.44,0,0,1-4.65,1.07,10.11,10.11,0,0,1-4.09-.84,8.17,8.17,0,0,1-3.86-3.31,8.5,8.5,0,0,1-1.25-4.57,8,8,0,0,1,2.88-6.32,9.5,9.5,0,0,1,3.56-1.89A11.15,11.15,0,0,1,72.1,157.42Zm-.49.88a4.31,4.31,0,0,0-2.91,1.07c-1.72,1.5-2.57,3.76-2.57,6.78a11.49,11.49,0,0,0,.73,4.17A5.89,5.89,0,0,0,69,173.07a4.73,4.73,0,0,0,2.86,1,4.79,4.79,0,0,0,2.51-.72,6.09,6.09,0,0,0,2.43-3,10.87,10.87,0,0,0,.77-4.19,10,10,0,0,0-1.09-4.66A5.89,5.89,0,0,0,74.11,159,4.93,4.93,0,0,0,71.61,158.3Z"/><path class="cls-1" d="M103.53,170.06l.18,0-1,4.35c-1.3-.08-2.92-.12-4.87-.12q-3.74,0-6.21.15a2.93,2.93,0,0,0,.78-.51,1.82,1.82,0,0,0,.75-1.48l0-.28.07-4.38v-1.34l0-1.33V165l0-4.11a4.33,4.33,0,0,0-.49-2.25,2.5,2.5,0,0,0-1.17-.84h6.31a2.84,2.84,0,0,0-1.65,2.83V172.3a1.22,1.22,0,0,0,.4,1,3.89,3.89,0,0,0,1.87.25,5,5,0,0,0,3.42-1.06A7.9,7.9,0,0,0,103.53,170.06Z"/><path class="cls-1" d="M125.91,170.06l.18,0-1,4.35c-1.3-.08-2.93-.12-4.87-.12q-3.74,0-6.21.15a3.29,3.29,0,0,0,.78-.51,1.8,1.8,0,0,0,.74-1.48v-.28l.06-4.38V165l0-4.11a4.14,4.14,0,0,0-.49-2.25,2.5,2.5,0,0,0-1.17-.84h6.31a2.84,2.84,0,0,0-1.65,2.83V172.3a1.22,1.22,0,0,0,.41,1,3.87,3.87,0,0,0,1.86.25,5,5,0,0,0,3.42-1.06A7.57,7.57,0,0,0,125.91,170.06Z"/><path class="cls-1" d="M136.28,174.45a2.64,2.64,0,0,0,1.43-1,1.72,1.72,0,0,0,.25-.81c0-.37.06-.61.06-.74l.1-3.32s0-.58,0-1.62v-1.56l0-4.42v-.13l0-.59a2.89,2.89,0,0,0-.42-1.44,2.35,2.35,0,0,0-1.31-1l9.44.06h1.63a4.23,4.23,0,0,0,.66,0l.36,3.27-.22,0a4.66,4.66,0,0,0-2-2,6.6,6.6,0,0,0-2.89-.54h-2.15l-.05,6.63,1.76,0h.48a3.9,3.9,0,0,0,2.11-.44,2.62,2.62,0,0,0,1.05-1.52h.27v4.61h-.22a4.44,4.44,0,0,0-.63-1,2.44,2.44,0,0,0-1.22-.81,7.48,7.48,0,0,0-1.85-.17l-.22,0h-1.53l0,4.71v.79a3.13,3.13,0,0,0,.37,1.84,1.82,1.82,0,0,0,1.46.44,8.85,8.85,0,0,0,3.8-.64,7,7,0,0,0,2.35-2.16l.24.09-1,3.42-1.68,0-2,0h-.2Z"/><path class="cls-1" d="M174.4,170.45l.27,0-.39,2.69a12.71,12.71,0,0,1-6.08,1.71,8.46,8.46,0,0,1-6.64-2.8,8.62,8.62,0,0,1-2.18-5.93,8.88,8.88,0,0,1,1.17-4.52,7.94,7.94,0,0,1,3.8-3.39,10,10,0,0,1,4.06-.83,11.1,11.1,0,0,1,3.16.47,10.87,10.87,0,0,1,2,.8.49.49,0,0,0,.2.06,1.35,1.35,0,0,0,.52-.15l.38,3.86h-.33c-.79-1.07-1.25-1.68-1.37-1.83a7.1,7.1,0,0,0-2.11-1.8,5,5,0,0,0-2.46-.64,4.42,4.42,0,0,0-3,1.11q-2.52,2.22-2.52,6.6a12.19,12.19,0,0,0,.67,4.07,6.4,6.4,0,0,0,2.12,3,5.36,5.36,0,0,0,3.36,1.1,5.72,5.72,0,0,0,4.31-2.11A6.43,6.43,0,0,0,174.4,170.45Z"/><path class="cls-1" d="M191.14,158.74l-1.17,0h-.52a5,5,0,0,0-3.33,1.13,11.83,11.83,0,0,0-1.26,1.28l-.23-.1,1.42-3.39.29-.13a2.94,2.94,0,0,0,.59.24,21.91,21.91,0,0,0,2.23.12h.17l7.46.06c.54,0,1.91,0,4.11-.17l.22.23-1.35,3.26h-.28a4.49,4.49,0,0,0-.2-1.55,1.55,1.55,0,0,0-.57-.66,4.37,4.37,0,0,0-2.13-.4h-.47l-1.81.06v12.65a4.54,4.54,0,0,0,.37,2.1,1.7,1.7,0,0,0,.47.66,7.34,7.34,0,0,0,.76.35H189.7a2.15,2.15,0,0,0,1.06-1.18A9.21,9.21,0,0,0,191,171Z"/><path class="cls-1" d="M212.53,172l.05-11.31v-.54a3.09,3.09,0,0,0-.17-1.23,2.76,2.76,0,0,0-1-1.1h5.68a3.48,3.48,0,0,0-1.11,1,3,3,0,0,0-.2.94c-.05.56-.08.87-.08.93v11.26a2.64,2.64,0,0,0,.73,2.05,4.29,4.29,0,0,0,.73.46h-5.79a3,3,0,0,0,.94-1A3.26,3.26,0,0,0,212.53,172Z"/><path class="cls-1" d="M237.46,157.42a8.56,8.56,0,0,1,6.86,3.05,8.28,8.28,0,0,1,2,5.52,8.61,8.61,0,0,1-1.28,4.64,8.4,8.4,0,0,1-3.46,3.14,10.44,10.44,0,0,1-4.65,1.07,10.15,10.15,0,0,1-4.09-.84,8.22,8.22,0,0,1-3.86-3.31,8.49,8.49,0,0,1-1.24-4.57,8,8,0,0,1,2.88-6.32,9.46,9.46,0,0,1,3.55-1.89A11.24,11.24,0,0,1,237.46,157.42Zm-.49.88a4.3,4.3,0,0,0-2.9,1.07q-2.58,2.25-2.58,6.78a11.49,11.49,0,0,0,.73,4.17,6,6,0,0,0,2.09,2.75,4.76,4.76,0,0,0,5.37.23,6.09,6.09,0,0,0,2.43-3,10.87,10.87,0,0,0,.77-4.19,9.91,9.91,0,0,0-1.09-4.66,5.83,5.83,0,0,0-2.32-2.49A4.93,4.93,0,0,0,237,158.3Z"/><path class="cls-1" d="M261.72,157.75l10.11,12.18.15-6.42v-.11c0-.1,0-.4,0-.88q.06-4.17-1.37-4.73h4A3.29,3.29,0,0,0,273.5,159a7.2,7.2,0,0,0-.34,2l-.18,4.35v.12l-.06,2q0,3.3,0,3.54l.06,3.41h-1.58L260.1,160.58v10.65c0,.08,0,.41.11,1a2.29,2.29,0,0,0,1.11,1.89,4.9,4.9,0,0,0,.88.34h-5a4.46,4.46,0,0,0,1-.72,1.86,1.86,0,0,0,.6-1.21l.14-1.38V159.3a8.37,8.37,0,0,0-2.05-1.57Z"/><path class="cls-2" d="M16.92,96.84l-3.05-.06c-.64,0-1.08,0-1.33,0a13,13,0,0,0-8.67,2.92A31.75,31.75,0,0,0,.6,103l-.6-.26,3.68-8.82.76-.32A6.53,6.53,0,0,0,6,94.2a46.65,46.65,0,0,0,5.8.32h.45l19.39.16c1.4,0,5-.13,10.7-.44l.57.6-3.52,8.47h-.73a11.68,11.68,0,0,0-.51-4,3.86,3.86,0,0,0-1.49-1.71,11.35,11.35,0,0,0-5.53-1l-1.23,0-4.7.16v32.88a11.86,11.86,0,0,0,.95,5.46,4.13,4.13,0,0,0,1.24,1.72,15.26,15.26,0,0,0,2,.92H13.17a5.54,5.54,0,0,0,2.76-3.08c.3-.64.52-2.57.67-5.81Z"/><path class="cls-2" d="M69.33,96.82q10.26,0,16.47,7.32a19.82,19.82,0,0,1,4.74,13.24,20.62,20.62,0,0,1-3.07,11.14,20,20,0,0,1-8.3,7.52A24.79,24.79,0,0,1,68,138.62a24.2,24.2,0,0,1-9.81-2,19.65,19.65,0,0,1-9.26-7.94,20.42,20.42,0,0,1-3-11,19.23,19.23,0,0,1,6.92-15.17A22.93,22.93,0,0,1,61.39,98,27.31,27.31,0,0,1,69.33,96.82Zm-1.17,2.11a10.29,10.29,0,0,0-7,2.57Q55,106.9,55,117.76a27.68,27.68,0,0,0,1.76,10,14.32,14.32,0,0,0,5,6.59,11.32,11.32,0,0,0,6.89,2.29,11.47,11.47,0,0,0,6-1.73,14.57,14.57,0,0,0,5.83-7.23,25.91,25.91,0,0,0,1.85-10,24,24,0,0,0-2.61-11.2,14.21,14.21,0,0,0-5.56-6A11.78,11.78,0,0,0,68.16,98.93Z"/><path class="cls-2" d="M106.57,97.61l24.26,29.24.35-15.41v-.27c0-.25,0-1,0-2.11q.15-10-3.28-11.36h9.58a7.81,7.81,0,0,0-2.61,3,16.37,16.37,0,0,0-.82,4.81l-.44,10.43v.29l-.15,4.81q0,7.91-.06,8.49l.15,8.18h-3.81l-27-33.29V130c0,.2.09,1,.26,2.37a5.56,5.56,0,0,0,2.67,4.55,11.48,11.48,0,0,0,2.11.82H95.64A10.64,10.64,0,0,0,98.07,136a4.63,4.63,0,0,0,1.44-2.9l.32-3.31,0-.38v-28a19.39,19.39,0,0,0-4.92-3.78Z"/><path class="cls-2" d="M157.51,121.28l-10.95-16.73a37.48,37.48,0,0,0-3.4-4.6,15.66,15.66,0,0,0-2.87-2.23h15.47c-1.43.88-2.14,1.73-2.14,2.55a7.76,7.76,0,0,0,1.49,3.78l8.76,13.77,5.6-8.64q3.51-5.39,3.51-7.65t-3.42-3.63l12-.15a27.06,27.06,0,0,0-4.72,4.66q-.76,1-4.63,6.39l-7.32,11.25v9.23l0,.09v.43c.06,2.52.34,4.2.85,5a6.1,6.1,0,0,0,3.69,2.85H153.35a5.51,5.51,0,0,0,3.46-2.73,9.19,9.19,0,0,0,.59-3.72Z"/><path class="cls-2" d="M177.58,137.69a19.65,19.65,0,0,0,5.92-7.48L194.25,108q3.66-8.17,4.43-10.37l.55,0A9.1,9.1,0,0,0,203.1,97l7.56,18.46.12.35a27.43,27.43,0,0,0,1.37,3.25c.8,1.8,1.38,3.08,1.73,3.84l4,8.58q2.58,5.43,5.45,6.22H207.76c2.24-.77,3.37-1.81,3.37-3.14a9.45,9.45,0,0,0-.79-2.43l-3.61-8.79h-17l-1.49,3.31a23.86,23.86,0,0,0-1,2.84,14.37,14.37,0,0,0-.73,3.81,4.43,4.43,0,0,0,2,3.58,6.8,6.8,0,0,0,1.47.82Zm20.95-34.19-7.94,17.93h15.35Z"/><path class="cls-2" d="M259.94,138.35l-4.32-11.11-.12-.28q-4.63-11.26-5.34-13l-5.26-12a25.52,25.52,0,0,0-2.77-5.14,8.69,8.69,0,0,0-2.41-2.32l15.84-.1c-.17.11-.67.39-1.49.86a2.7,2.7,0,0,0-1.56,2.54,10.73,10.73,0,0,0,1,3.74l11.55,27.9L274,107.28l-1.78-4.76c-1.9-4.59-3.93-7.29-6.06-8.09h16.95q-3.37,2-3.37,3.87a16.75,16.75,0,0,0,1.49,5.27l11.14,27.23,9.18-23.65c.33-.86.76-2.13,1.27-3.81a18,18,0,0,0,1-4.47c0-1.74-1.19-3.18-3.56-4.35l12.54-.09a13.33,13.33,0,0,0-2.44,2.35,25.73,25.73,0,0,0-3,4.76l-1.68,3.52-.16.32-3.84,9-.16.35-1.58,3.81q-1.59,3.87-1.81,4.34l-6.25,15.46h-5q-.48-1-2.6-6.82l-2.83-7.24-6-14.09-10.8,28.18Z"/><path class="cls-1" d="M223,0,178.2,44.78l-7.42-7.42L208.14,0h-26.7l-24,24-24-24h-26.7l37.36,37.36-7.42,7.42L91.87,0h-6l50.81,50.81,10.43-10.44,10.35,10.35,10.34-10.35L178.2,50.81,229,0ZM117,4.26h14.66L154.41,27l-7.33,7.33Zm40.44,40.43-7.34-7.33L157.43,30l7.33,7.33Zm3-17.67L183.2,4.26h14.66L167.77,34.35Z"/></g></g></svg>